<svg width="203" height="123" viewBox="0 0 203 123" fill="none" xmlns="http://www.w3.org/2000/svg">
<rect x="0.5" y="0.5" width="202" height="121.542" rx="4.5" stroke="#9747FF" stroke-dasharray="10 5"/>
<path d="M46.4818 36.6317C46.4818 35.089 45.6337 33.7291 44.3835 33.0053V28.8086C45.6337 28.0847 46.4818 26.7248 46.4818 25.1821C46.4818 22.8863 44.6028 21 42.2997 21C39.9966 21 38.103 22.879 38.103 25.1821C38.103 25.5842 38.1542 25.9717 38.2638 26.3373L34.2426 30.5194C33.9209 30.439 33.5846 30.3951 33.2336 30.3951C32.8827 30.3951 32.5463 30.439 32.2246 30.5194L28.218 26.3519C28.3277 25.9791 28.3788 25.5842 28.3788 25.1821C28.3788 22.8863 26.4998 21 24.1821 21C21.8644 21 20 22.879 20 25.1821C20 26.7248 20.8481 28.0847 22.0984 28.8086V33.0053C20.8481 33.7291 20 35.089 20 36.6317C20 38.1744 20.8481 39.5344 22.0984 40.2509V44.4476C20.8481 45.1714 20 46.5314 20 48.0741C20 50.3845 21.879 52.2708 24.1967 52.2708C26.5144 52.2708 28.3935 50.3918 28.3935 48.0741C28.3935 46.5314 27.5453 45.1714 26.2951 44.4476V40.2509C27.5453 39.5417 28.3935 38.1818 28.3935 36.6317C28.3935 35.0817 27.5453 33.7291 26.2951 33.0053V30.3805L29.227 33.4294C29.1173 33.7949 29.0661 34.1824 29.0661 34.5846C29.0661 36.8949 30.9451 38.7667 33.2482 38.7667C35.5513 38.7667 37.445 36.8949 37.445 34.5846C37.445 34.1824 37.3938 33.7949 37.2841 33.4294L40.216 30.3805V33.0126C38.9657 33.7218 38.1176 35.0817 38.1176 36.6317C38.1176 38.1818 38.9657 39.5344 40.216 40.2363V44.4549C38.9657 45.1641 38.1176 46.524 38.1176 48.0741C38.1176 50.3845 39.9966 52.2708 42.3143 52.2708C44.6321 52.2708 46.4965 50.3918 46.4965 48.0741C46.4965 46.5314 45.6483 45.1714 44.3981 44.4476V40.2509C45.6483 39.5417 46.4965 38.1818 46.4965 36.6317H46.4818ZM26.5876 46.6337C26.668 46.7653 26.7484 46.9189 26.7996 47.0797C26.8508 47.2259 26.9093 47.3649 26.9312 47.5111C26.9312 47.5549 26.9458 47.6061 26.9604 47.6573C26.9751 47.7889 26.9897 47.9278 26.9897 48.0741C26.9897 49.6168 25.7394 50.867 24.1967 50.867C22.654 50.867 21.4038 49.6168 21.4038 48.0741C21.4038 47.9278 21.4184 47.7889 21.433 47.6573C21.4477 47.6061 21.4623 47.5476 21.4623 47.5111C21.4915 47.3649 21.5427 47.2259 21.5939 47.0797C21.6451 46.9189 21.7255 46.7726 21.8059 46.6337C21.8863 46.4875 21.996 46.3486 22.0984 46.2316C22.4201 45.8587 22.8368 45.5882 23.2974 45.4273C23.3925 45.3981 23.5022 45.3762 23.5899 45.3469C23.78 45.303 23.992 45.2811 24.1967 45.2811C24.4015 45.2811 24.6135 45.3104 24.8036 45.3469C24.8986 45.3762 25.0083 45.3981 25.096 45.4273C25.5567 45.5882 25.9734 45.8587 26.2951 46.2316C26.4048 46.3559 26.5071 46.4875 26.5876 46.6337ZM26.5876 35.1841C26.668 35.3303 26.7484 35.4765 26.7996 35.6301C26.8508 35.7617 26.8946 35.9152 26.9312 36.0615V36.0761C26.9458 36.1273 26.9458 36.1857 26.9604 36.2369C26.9751 36.3612 26.9897 36.5074 26.9897 36.6391C26.9897 36.7853 26.9751 36.9242 26.9604 37.0558C26.9458 37.107 26.9312 37.1655 26.9312 37.202C26.8873 37.3483 26.8508 37.4945 26.7996 37.6334C26.7484 37.7943 26.668 37.9259 26.5876 38.0794C26.5071 38.211 26.3975 38.3499 26.2951 38.4669C25.7833 39.0591 25.0302 39.4247 24.1967 39.4247C23.3632 39.4247 22.6102 39.0591 22.0984 38.4669C21.9887 38.3426 21.8863 38.211 21.8059 38.0794C21.7255 37.9332 21.6451 37.7943 21.5939 37.6334C21.5427 37.5018 21.4842 37.3483 21.4623 37.202C21.4623 37.1582 21.4477 37.107 21.433 37.0558C21.4184 36.9242 21.4038 36.7853 21.4038 36.6391C21.4038 36.5074 21.4184 36.3685 21.433 36.2369C21.4477 36.1857 21.4477 36.1273 21.4623 36.0761V36.0615C21.5061 35.9152 21.5427 35.769 21.5939 35.6301C21.6451 35.4839 21.7255 35.3376 21.8059 35.1841C21.8863 35.0525 21.996 34.9136 22.0984 34.7966C22.4201 34.431 22.8368 34.1532 23.2974 33.9923C23.3925 33.9631 23.5022 33.9412 23.5899 33.9119C23.78 33.868 23.992 33.8461 24.1967 33.8461C24.4015 33.8461 24.6135 33.8753 24.8036 33.9119C24.8986 33.9412 25.0083 33.9631 25.096 33.9923C25.5567 34.1532 25.9734 34.4383 26.2951 34.7966C26.4048 34.9209 26.5071 35.0525 26.5876 35.1841ZM26.9897 25.1821C26.9897 26.7248 25.7394 27.9751 24.1967 27.9751C23.3632 27.9751 22.6102 27.6095 22.0984 27.0173C21.6524 26.5347 21.3965 25.8913 21.3965 25.1748C21.3965 23.6394 22.6467 22.3892 24.1894 22.3892C25.7321 22.3892 26.9166 23.5736 26.9824 25.0505V25.1748L26.9897 25.1821ZM36.0339 34.7381L36.0192 34.7527V34.7966C36.0192 34.8405 36.0192 34.8916 36.0046 34.9282C36.0046 34.994 35.99 35.0744 35.9754 35.1402C35.9754 35.1841 35.9608 35.2206 35.9461 35.2645C35.9169 35.3449 35.8949 35.44 35.8657 35.5204C35.8365 35.6008 35.8145 35.6813 35.7707 35.7617C35.7268 35.8421 35.6902 35.9225 35.6464 35.9883C35.5952 36.0688 35.5513 36.1492 35.5001 36.215C35.4051 36.3393 35.31 36.4563 35.2077 36.5659C35.1273 36.6464 35.0468 36.7122 34.9664 36.778C34.8348 36.8876 34.6813 36.9827 34.535 37.0631C34.3742 37.1435 34.2133 37.2093 34.0379 37.2678C33.9282 37.3117 33.8112 37.3336 33.7015 37.3483C33.5553 37.3775 33.3945 37.3921 33.2336 37.3921C33.0728 37.3921 32.9119 37.3775 32.7657 37.3483C32.656 37.3336 32.539 37.3044 32.4294 37.2678C32.2977 37.224 32.1442 37.1728 32.0272 37.107C31.9176 37.0558 31.8152 36.9973 31.7201 36.9315C31.669 36.9023 31.6105 36.8657 31.5593 36.8072C31.4643 36.7414 31.3692 36.661 31.2742 36.5659C31.1645 36.4563 31.0694 36.3393 30.9817 36.215C30.9305 36.1492 30.872 36.0688 30.8355 35.9883C30.7916 35.9225 30.755 35.8421 30.7112 35.7617C30.6819 35.6813 30.6454 35.6008 30.6161 35.5204C30.5723 35.44 30.5503 35.3449 30.5357 35.2645C30.5211 35.2206 30.5065 35.1841 30.5065 35.1402C30.4918 35.0744 30.4772 34.994 30.4772 34.9282C30.4626 34.8843 30.4626 34.8331 30.4626 34.7966V34.7527C30.4626 34.7527 30.448 34.7381 30.448 34.7235V34.5919C30.448 33.0492 31.6982 31.7989 33.2336 31.7989C34.769 31.7989 36.0266 33.0492 36.0266 34.5919V34.7381H36.0339ZM39.5068 25.1821V25.0505L39.5214 25.0359C39.5872 23.5736 40.8082 22.4038 42.307 22.4038C43.8059 22.4038 45.0927 23.654 45.0927 25.1894C45.0927 25.8986 44.8368 26.5493 44.3908 27.0319C43.879 27.6241 43.1405 27.9897 42.307 27.9897C40.7643 27.9897 39.5141 26.7394 39.5141 25.1967L39.5068 25.1821ZM45.0854 48.0741C45.0854 49.6168 43.8351 50.867 42.2997 50.867C40.7643 50.867 39.5068 49.6168 39.5068 48.0741C39.5068 47.3722 39.7627 46.7288 40.2087 46.2316C40.7205 45.6394 41.4735 45.2738 42.307 45.2738C43.1405 45.2738 43.879 45.6394 44.3908 46.2316C44.8368 46.7288 45.0927 47.3722 45.0927 48.0741H45.0854ZM42.2997 39.4174C41.4662 39.4174 40.7132 39.0518 40.2014 38.4596C39.7554 37.977 39.4995 37.3336 39.4995 36.6317C39.4995 35.9298 39.7554 35.2718 40.2014 34.7893C40.7132 34.1971 41.4662 33.8315 42.2997 33.8315C43.1332 33.8315 43.8717 34.1971 44.3835 34.7893C44.8295 35.2718 45.0854 35.9152 45.0854 36.6317C45.0854 37.3483 44.8295 37.977 44.3835 38.4596C43.8717 39.0518 43.1332 39.4174 42.2997 39.4174Z" fill="#DE7330"/>
<path d="M36.0337 34.5919V34.7381L36.019 34.7527V34.7966C36.019 34.8405 36.019 34.8917 36.0044 34.9282C36.0044 34.994 35.9898 35.0745 35.9752 35.1403C35.9752 35.1841 35.9605 35.2207 35.9459 35.2645C35.9167 35.345 35.8947 35.44 35.8655 35.5204C35.8362 35.6009 35.8143 35.6813 35.7704 35.7617C35.7266 35.8421 35.69 35.9226 35.6461 35.9884C35.595 36.0688 35.5511 36.1492 35.4999 36.215C35.4049 36.3393 35.3098 36.4563 35.2075 36.566C35.127 36.6464 35.0466 36.7122 34.9662 36.778C34.8346 36.8877 34.681 36.9827 34.5348 37.0631C34.374 37.1436 34.2131 37.2094 34.0376 37.2679C33.928 37.3117 33.811 37.3337 33.7013 37.3483C33.5551 37.3775 33.3942 37.3922 33.2334 37.3922C33.0725 37.3922 32.9117 37.3775 32.7655 37.3483C32.6558 37.3337 32.5388 37.3044 32.4291 37.2679C32.2975 37.224 32.144 37.1728 32.027 37.107C31.9173 37.0558 31.815 36.9973 31.7199 36.9315C31.6688 36.9023 31.6103 36.8657 31.5591 36.8072C31.464 36.7414 31.369 36.661 31.2739 36.566C31.1643 36.4563 31.0692 36.3393 30.9815 36.215C30.9303 36.1492 30.8718 36.0688 30.8353 35.9884C30.7914 35.9226 30.7548 35.8421 30.711 35.7617C30.6817 35.6813 30.6452 35.6009 30.6159 35.5204C30.572 35.44 30.5501 35.345 30.5355 35.2645C30.5209 35.2207 30.5062 35.1841 30.5062 35.1403C30.4916 35.0745 30.477 34.994 30.477 34.9282C30.4624 34.8844 30.4624 34.8332 30.4624 34.7966V34.7527C30.4624 34.7527 30.4478 34.7381 30.4478 34.7235V34.5919C30.4478 33.0492 31.698 31.799 33.2334 31.799C34.7688 31.799 36.0263 33.0492 36.0263 34.5919H36.0337Z" fill="#F5C246"/>
<path d="M26.9897 25.0579V25.1822C26.9897 26.7249 25.7394 27.9752 24.1967 27.9752C23.3632 27.9752 22.6102 27.6096 22.0984 27.0174C21.6524 26.5348 21.3965 25.8914 21.3965 25.1749C21.3965 23.6395 22.6467 22.3893 24.1894 22.3893C25.7321 22.3893 26.9166 23.5737 26.9824 25.0506L26.9897 25.0579Z" fill="#F5C246"/>
<path fill-rule="evenodd" clip-rule="evenodd" d="M45.0854 25.1821C45.0854 25.8914 44.8295 26.5421 44.3835 27.0246C43.8717 27.6168 43.1333 27.9824 42.2998 27.9824C40.7571 27.9824 39.5068 26.7322 39.5068 25.1895V25.0579L39.5215 25.0432C39.5873 23.581 40.8083 22.4111 42.3071 22.4111C43.8059 22.4111 45.0927 23.6614 45.0927 25.1968L45.0854 25.1821Z" fill="#F5C246"/>
<path fill-rule="evenodd" clip-rule="evenodd" d="M45.0854 48.0741C45.0854 49.6168 43.8352 50.867 42.2998 50.867C40.7644 50.867 39.5068 49.6168 39.5068 48.0741C39.5068 47.3722 39.7627 46.7288 40.2087 46.2316C40.7205 45.6394 41.4736 45.2738 42.3071 45.2738C43.1406 45.2738 43.879 45.6394 44.3908 46.2316C44.8368 46.7288 45.0927 47.3722 45.0927 48.0741H45.0854Z" fill="#F5C246"/>
<path fill-rule="evenodd" clip-rule="evenodd" d="M45.0854 36.6318C45.0854 37.3337 44.8295 37.9771 44.3835 38.4596C43.8717 39.0519 43.1333 39.4174 42.2998 39.4174C41.4663 39.4174 40.7132 39.0519 40.2014 38.4596C39.7554 37.9771 39.4995 37.3337 39.4995 36.6318C39.4995 35.9299 39.7554 35.2719 40.2014 34.7893C40.7132 34.1971 41.4663 33.8315 42.2998 33.8315C43.1333 33.8315 43.8717 34.1971 44.3835 34.7893C44.8295 35.2719 45.0854 35.9153 45.0854 36.6318Z" fill="#F5C246"/>
<path fill-rule="evenodd" clip-rule="evenodd" d="M26.9897 48.0741C26.9897 49.6168 25.7395 50.867 24.1968 50.867C22.6541 50.867 21.4038 49.6168 21.4038 48.0741C21.4038 47.9278 21.4184 47.7889 21.4331 47.6573C21.4477 47.6061 21.4623 47.5477 21.4623 47.5111C21.5062 47.3649 21.5427 47.2186 21.5939 47.0797C21.6451 46.9189 21.7255 46.7727 21.8059 46.6337C21.8864 46.4875 21.996 46.3486 22.0984 46.2316C22.4201 45.8587 22.8368 45.5882 23.2975 45.4274C23.3925 45.3981 23.5022 45.3762 23.5899 45.3469C23.78 45.3031 23.992 45.2811 24.1968 45.2811C24.4015 45.2811 24.6135 45.3104 24.8036 45.3469C24.8987 45.3762 25.0083 45.3981 25.0961 45.4274C25.5567 45.5882 25.9734 45.8587 26.2951 46.2316C26.4048 46.3559 26.5072 46.4875 26.5876 46.6337C26.668 46.7653 26.7484 46.9189 26.7996 47.0797C26.8508 47.2113 26.8947 47.3649 26.9312 47.5111C26.9312 47.555 26.9458 47.6061 26.9605 47.6573C26.9751 47.7889 26.9897 47.9278 26.9897 48.0741Z" fill="#F5C246"/>
<path fill-rule="evenodd" clip-rule="evenodd" d="M26.9897 36.6318C26.9897 36.778 26.9751 36.917 26.9605 37.0486C26.9458 37.0997 26.9312 37.1582 26.9312 37.1948C26.8873 37.341 26.8508 37.4872 26.7996 37.6262C26.7484 37.787 26.668 37.9186 26.5876 38.0722C26.5072 38.2038 26.3975 38.3427 26.2951 38.4597C25.7833 39.0519 25.0303 39.4175 24.1968 39.4175C23.3633 39.4175 22.6102 39.0519 22.0984 38.4597C21.9887 38.3354 21.8864 38.2038 21.8059 38.0722C21.7255 37.9259 21.6451 37.787 21.5939 37.6262C21.5427 37.4946 21.4989 37.341 21.4623 37.1948C21.4623 37.1509 21.4477 37.0997 21.4331 37.0486C21.4184 36.917 21.4038 36.778 21.4038 36.6318C21.4038 36.5002 21.4184 36.3613 21.4331 36.2297C21.4477 36.1785 21.4477 36.12 21.4623 36.0688V36.0542C21.5062 35.908 21.5427 35.7618 21.5939 35.6228C21.6451 35.4766 21.7255 35.3304 21.8059 35.1769C21.8864 35.0452 21.996 34.9063 22.0984 34.7893C22.4201 34.4238 22.8368 34.1459 23.2975 33.9851C23.3925 33.9558 23.5022 33.9339 23.5899 33.9047C23.78 33.8608 23.992 33.8389 24.1968 33.8389C24.4015 33.8389 24.6135 33.8681 24.8036 33.9047C24.8987 33.9339 25.0083 33.9558 25.0961 33.9851C25.5567 34.1459 25.9734 34.4311 26.2951 34.7893C26.4048 34.9136 26.5072 35.0452 26.5876 35.1769C26.668 35.3231 26.7484 35.4693 26.7996 35.6228C26.8508 35.7545 26.8947 35.908 26.9312 36.0542V36.0688C26.9458 36.12 26.9458 36.1785 26.9605 36.2297C26.9751 36.354 26.9897 36.5002 26.9897 36.6318Z" fill="#F5C246"/>
<path d="M68.7596 45.7197H67.1803C67.1803 43.5921 65.5499 42.4077 64.0364 42.203L64.2484 40.6383C66.9025 40.9966 68.7596 43.0876 68.7596 45.7197ZM60.8121 41.0478C58.9184 39.9072 57.4708 38.1817 56.5276 35.9225L57.9826 35.3156C58.8088 37.2897 60.0005 38.7227 61.6237 39.6952L60.8121 41.0478ZM55.5771 32.7567C55.2116 30.9434 55.0288 28.9036 55.0142 26.33H56.5934C56.608 28.7939 56.7762 30.7387 57.1198 32.4423L55.5771 32.7567Z" fill="#DE7330"/>
<path d="M69.0081 51.8321H50.2544C49.7938 51.8321 49.4209 51.4593 49.4209 50.9987V22.689C49.4209 22.2283 49.7938 21.8555 50.2544 21.8555H52.7768C53.2374 21.8555 53.6103 22.2283 53.6103 22.689V47.6427H69.0081C69.4687 47.6427 69.8416 48.0156 69.8416 48.4762V50.9987C69.8416 51.4593 69.4687 51.8321 69.0081 51.8321Z" fill="#DE7330"/>
<path d="M59.6352 30.2781C60.2692 30.2781 60.7831 29.7641 60.7831 29.1302C60.7831 28.4962 60.2692 27.9823 59.6352 27.9823C59.0012 27.9823 58.4873 28.4962 58.4873 29.1302C58.4873 29.7641 59.0012 30.2781 59.6352 30.2781Z" fill="#F5C246"/>
<path d="M66.5517 39.6732C67.1857 39.6732 67.6996 39.1593 67.6996 38.5253C67.6996 37.8914 67.1857 37.3774 66.5517 37.3774C65.9177 37.3774 65.4038 37.8914 65.4038 38.5253C65.4038 39.1593 65.9177 39.6732 66.5517 39.6732Z" fill="#F5C246"/>
<path d="M61.8867 36.0031C62.5206 36.0031 63.0345 35.4891 63.0345 34.8552C63.0345 34.2212 62.5206 33.7073 61.8867 33.7073C61.2527 33.7073 60.7388 34.2212 60.7388 34.8552C60.7388 35.4891 61.2527 36.0031 61.8867 36.0031Z" fill="#F5C246"/>
<path fill-rule="evenodd" clip-rule="evenodd" d="M56.9445 40.1119C57.0688 40.1119 57.1785 40.1924 57.215 40.3093L57.3686 40.7627C57.4271 40.9308 57.5587 41.0697 57.7341 41.1282L58.1874 41.2818C58.341 41.3329 58.4214 41.4938 58.3702 41.6473C58.341 41.7351 58.2752 41.8009 58.1874 41.8301L57.7341 41.9837C57.566 42.0421 57.4271 42.1737 57.3686 42.3492L57.215 42.8025C57.1639 42.9561 57.003 43.0365 56.8495 42.9853C56.7617 42.9561 56.6959 42.8903 56.6667 42.8025L56.5131 42.3492C56.4546 42.1811 56.323 42.0421 56.1476 41.9837L55.6943 41.8301C55.5407 41.7789 55.4603 41.6181 55.5115 41.4645C55.5407 41.3768 55.6065 41.311 55.6943 41.2818L56.1476 41.1282C56.3157 41.0697 56.4546 40.9381 56.5131 40.7627L56.6667 40.3093C56.7032 40.1924 56.8129 40.1119 56.9372 40.1119H56.9445Z" fill="#F5C246"/>
<path fill-rule="evenodd" clip-rule="evenodd" d="M64.3288 43.6068C64.4531 43.6068 64.5628 43.6872 64.5993 43.8042L64.7529 44.2575C64.8113 44.4257 64.9429 44.5646 65.1184 44.6231L65.5717 44.7766C65.7253 44.8278 65.8057 44.9887 65.7545 45.1422C65.7253 45.2299 65.6595 45.2957 65.5717 45.325L65.1184 45.4785C64.9503 45.537 64.8113 45.6686 64.7529 45.8441L64.5993 46.2974C64.5481 46.4509 64.3873 46.5314 64.2337 46.4802C64.146 46.4509 64.0802 46.3851 64.051 46.2974L63.8974 45.8441C63.8389 45.6759 63.7073 45.537 63.5319 45.4785L63.0785 45.325C62.925 45.2738 62.8446 45.113 62.8958 44.9594C62.925 44.8717 62.9908 44.8059 63.0785 44.7766L63.5319 44.6231C63.7 44.5646 63.8389 44.433 63.8974 44.2575L64.051 43.8042C64.0875 43.6872 64.1972 43.6068 64.3215 43.6068H64.3288Z" fill="#F5C246"/>
<path fill-rule="evenodd" clip-rule="evenodd" d="M60.4538 42.415C60.5781 42.415 60.6878 42.4955 60.7243 42.6124L60.8779 43.0658C60.9363 43.2339 61.0679 43.3728 61.2434 43.4313L61.6967 43.5849C61.8503 43.636 61.9307 43.7969 61.8795 43.9504C61.8503 44.0382 61.7845 44.104 61.6967 44.1332L61.2434 44.2868C61.0753 44.3452 60.9363 44.4768 60.8779 44.6523L60.7243 45.1056C60.6731 45.2592 60.5123 45.3396 60.3587 45.2884C60.271 45.2592 60.2052 45.1934 60.176 45.1056L60.0224 44.6523C59.9639 44.4842 59.8323 44.3452 59.6569 44.2868L59.2035 44.1332C59.05 44.082 58.9696 43.9212 59.0208 43.7676C59.05 43.6799 59.1158 43.6141 59.2035 43.5849L59.6569 43.4313C59.825 43.3728 59.9639 43.2412 60.0224 43.0658L60.176 42.6124C60.2125 42.4955 60.3222 42.415 60.4465 42.415H60.4538Z" fill="#F5C246"/>
<path d="M94.7662 25.1456C96.5063 26.023 97.837 27.2659 98.7729 28.8598C99.7014 30.4537 100.169 32.2961 100.169 34.3872C100.169 36.0688 99.8769 37.6481 99.292 39.1469C98.707 40.6384 97.8662 41.8448 96.7622 42.766C95.6582 43.6873 94.3495 44.1479 92.836 44.1479C91.7685 44.1479 90.9131 43.9286 90.2551 43.4899C89.5971 43.0512 89.1803 42.4224 88.9975 41.6035C88.3907 42.4151 87.6011 43.0585 86.636 43.5191C85.6709 43.9797 84.5815 44.2064 83.5067 44.1771C82.0517 44.1333 80.9038 43.6727 80.063 42.7807C79.1857 41.8521 78.7397 40.5726 78.7397 38.9568C78.7397 37.341 79.054 35.9884 79.6901 34.6577C80.3262 33.3271 81.2036 32.2596 82.3295 31.448C83.4555 30.6365 84.7204 30.2343 86.1388 30.2343C87.9008 30.2343 89.1072 30.8485 89.7579 32.0768L89.9041 31.2214C89.9773 30.79 90.3501 30.4829 90.7888 30.4829H92.5655C93.1212 30.4829 93.5452 30.9801 93.4429 31.5285L92.1853 38.7667C92.1268 39.1542 92.0902 39.5125 92.0902 39.8415C92.0902 40.3314 92.1926 40.7042 92.3973 40.9455C92.602 41.1941 92.953 41.3111 93.4429 41.3111C94.1813 41.3111 94.7955 40.9601 95.2999 40.2656C95.8044 39.571 96.1773 38.7009 96.4332 37.6554C96.6891 36.6099 96.8134 35.5716 96.8134 34.5261C96.8134 32.0476 96.053 30.132 94.5396 28.7721C93.0261 27.4121 90.8839 26.7322 88.1275 26.7322C85.7732 26.7322 83.6456 27.3025 81.7446 28.4357C79.8437 29.569 78.3522 31.119 77.2774 33.0712C76.2026 35.0233 75.6689 37.2021 75.6689 39.5929C75.6689 42.13 76.422 44.0821 77.9281 45.4566C79.4342 46.8239 81.5619 47.5111 84.3256 47.5111C85.9048 47.5111 87.3378 47.2845 88.6247 46.8312C89.1364 46.6484 89.6848 46.9482 89.8018 47.4746L90.0284 48.5128C90.1235 48.9442 89.8895 49.3902 89.4801 49.5364C87.7254 50.1725 85.8025 50.4869 83.7114 50.4869C81.4229 50.4869 79.4123 50.0555 77.6941 49.1854C75.976 48.3154 74.6453 47.0798 73.7021 45.4859C72.7589 43.892 72.291 42.0349 72.291 39.9292C72.291 36.9243 72.9929 34.1898 74.3967 31.7332C75.8005 29.2765 77.7453 27.3463 80.2312 25.9352C82.7171 24.5241 85.5027 23.8149 88.5954 23.8149C90.9716 23.8149 93.0261 24.2536 94.7662 25.1383V25.1456ZM87.0893 40.3387C87.7034 39.9073 88.186 39.337 88.5442 38.6205C88.9025 37.904 89.078 37.1363 89.078 36.3174C89.078 35.4547 88.844 34.7601 88.3688 34.2337C87.9008 33.6999 87.2428 33.4367 86.402 33.4367C85.6416 33.4367 84.9763 33.6634 84.406 34.124C83.8357 34.5846 83.3897 35.1841 83.068 35.9226C82.7463 36.661 82.5928 37.436 82.5928 38.2549C82.5928 39.0738 82.7975 39.7611 83.2069 40.2509C83.6164 40.7408 84.2305 40.9894 85.0494 40.9894C85.7878 40.9894 86.4605 40.7773 87.0746 40.346L87.0893 40.3387Z" fill="#DE7330"/>
<path d="M107.408 49.4925C105.938 48.8637 104.776 47.9644 103.928 46.78C103.299 45.9172 102.897 44.9375 102.721 43.8408C102.611 43.1828 103.145 42.5978 103.811 42.5978H107.327C107.846 42.5978 108.27 42.9634 108.402 43.4679C108.585 44.1479 108.914 44.7108 109.411 45.1568C110.098 45.7856 111.049 46.1 112.255 46.1C113.462 46.1 114.449 45.8075 115.15 45.2153C115.852 44.6231 116.203 43.8554 116.203 42.8976C116.203 42.1226 115.962 41.4792 115.487 40.9747C115.012 40.4702 114.412 40.0754 113.696 39.7903C112.979 39.5051 111.992 39.1834 110.742 38.8325C109.038 38.328 107.649 37.8381 106.582 37.3483C105.514 36.8584 104.6 36.12 103.832 35.1256C103.065 34.1313 102.685 32.8079 102.685 31.1555C102.685 29.5982 103.072 28.2456 103.854 27.0904C104.629 25.9352 105.726 25.0505 107.13 24.4364C108.534 23.8222 110.142 23.5151 111.948 23.5151C114.661 23.5151 116.861 24.1732 118.558 25.4892C119.925 26.5567 120.802 27.9605 121.175 29.7079C121.321 30.3805 120.78 31.002 120.093 31.002H116.488C116.021 31.002 115.567 30.7168 115.436 30.2635C115.267 29.6786 114.924 29.1815 114.412 28.7574C113.696 28.1652 112.752 27.8727 111.568 27.8727C110.537 27.8727 109.718 28.1359 109.104 28.6624C108.49 29.1888 108.183 29.9565 108.183 30.9581C108.183 31.66 108.417 32.2449 108.877 32.7055C109.338 33.1735 109.916 33.5464 110.61 33.8315C111.297 34.124 112.27 34.453 113.527 34.8258C115.231 35.3303 116.627 35.8275 117.709 36.332C118.792 36.8365 119.72 37.5895 120.495 38.5912C121.27 39.5929 121.665 40.9162 121.665 42.5467C121.665 43.9505 121.299 45.2592 120.576 46.4656C119.844 47.6719 118.777 48.6297 117.373 49.3463C115.969 50.0628 114.295 50.421 112.365 50.421C110.53 50.421 108.885 50.1066 107.415 49.4779L107.408 49.4925Z" fill="#F5C246"/>
<path d="M138.247 23.8954C138.854 23.8954 139.344 24.3852 139.344 24.9921V42.342C139.344 44.901 138.605 46.8897 137.121 48.3081C135.637 49.7265 133.656 50.4357 131.17 50.4357C128.684 50.4357 126.629 49.7046 125.087 48.2496C123.793 47.0286 123.039 45.3982 122.827 43.3583C122.762 42.7149 123.281 42.1519 123.924 42.1519H127.002C127.543 42.1519 128.033 42.5248 128.121 43.0585C128.238 43.7604 128.479 44.338 128.852 44.784C129.364 45.4128 130.117 45.7272 131.089 45.7272C132.062 45.7272 132.771 45.4274 133.275 44.8206C133.78 44.221 134.028 43.3875 134.028 42.3347V24.9921C134.028 24.3852 134.518 23.8954 135.125 23.8954H138.24H138.247Z" fill="#F5C246"/>
<path d="M145.946 49.4925C144.476 48.8637 143.314 47.9644 142.466 46.78C141.837 45.9172 141.435 44.9375 141.259 43.8408C141.15 43.1828 141.683 42.5978 142.349 42.5978H145.865C146.384 42.5978 146.809 42.9634 146.94 43.4679C147.123 44.1479 147.452 44.7108 147.949 45.1568C148.636 45.7856 149.587 46.1 150.793 46.1C152 46.1 152.987 45.8075 153.689 45.2153C154.39 44.6231 154.741 43.8554 154.741 42.8976C154.741 42.1226 154.5 41.4792 154.025 40.9747C153.55 40.4702 152.95 40.0754 152.234 39.7903C151.517 39.5051 150.53 39.1834 149.28 38.8325C147.576 38.328 146.187 37.8381 145.12 37.3483C144.052 36.8584 143.138 36.12 142.371 35.1256C141.603 34.1313 141.223 32.8079 141.223 31.1555C141.223 29.5982 141.61 28.2456 142.392 27.0904C143.167 25.9352 144.264 25.0505 145.668 24.4364C147.072 23.8222 148.68 23.5151 150.486 23.5151C153.199 23.5151 155.399 24.1732 157.096 25.4892C158.463 26.5567 159.34 27.9605 159.713 29.7079C159.859 30.3805 159.318 31.002 158.631 31.002H155.027C154.559 31.002 154.105 30.7168 153.974 30.2635C153.806 29.6786 153.462 29.1815 152.95 28.7574C152.234 28.1652 151.29 27.8727 150.106 27.8727C149.075 27.8727 148.256 28.1359 147.642 28.6624C147.028 29.1888 146.721 29.9565 146.721 30.9581C146.721 31.66 146.955 32.2449 147.415 32.7055C147.876 33.1735 148.454 33.5464 149.148 33.8315C149.835 34.124 150.808 34.453 152.065 34.8258C153.769 35.3303 155.165 35.8275 156.248 36.332C157.33 36.8365 158.258 37.5895 159.033 38.5912C159.808 39.5929 160.203 40.9162 160.203 42.5467C160.203 43.9505 159.837 45.2592 159.114 46.4656C158.382 47.6719 157.315 48.6297 155.911 49.3463C154.507 50.0628 152.833 50.421 150.903 50.421C149.068 50.421 147.423 50.1066 145.953 49.4779L145.946 49.4925Z" fill="#F5C246"/>
<path d="M165.928 23.8954C166.535 23.8954 167.025 24.3852 167.025 24.9921V40.1632C167.025 41.9472 167.486 43.3071 168.421 44.2503C169.35 45.1935 170.651 45.6614 172.34 45.6614C174.029 45.6614 175.367 45.1935 176.296 44.2503C177.224 43.3071 177.692 41.9472 177.692 40.1632V24.9921C177.692 24.3852 178.182 23.8954 178.789 23.8954H181.904C182.51 23.8954 183 24.3852 183 24.9921V40.1193C183 42.3566 182.518 44.243 181.553 45.7857C180.588 47.3284 179.293 48.4909 177.678 49.2659C176.062 50.0409 174.256 50.4357 172.275 50.4357C170.293 50.4357 168.538 50.0482 166.945 49.2659C165.351 48.4909 164.086 47.3284 163.157 45.7857C162.229 44.243 161.761 42.3566 161.761 40.1193V24.9921C161.761 24.3852 162.251 23.8954 162.857 23.8954H165.936H165.928Z" fill="#F5C246"/>
<path d="M46.4818 87.6317C46.4818 86.089 45.6337 84.7291 44.3835 84.0053V79.8086C45.6337 79.0847 46.4818 77.7248 46.4818 76.1821C46.4818 73.8863 44.6028 72 42.2997 72C39.9966 72 38.103 73.879 38.103 76.1821C38.103 76.5842 38.1542 76.9717 38.2638 77.3373L34.2426 81.5194C33.9209 81.439 33.5846 81.3951 33.2336 81.3951C32.8827 81.3951 32.5463 81.439 32.2246 81.5194L28.218 77.3519C28.3277 76.9791 28.3788 76.5842 28.3788 76.1821C28.3788 73.8863 26.4998 72 24.1821 72C21.8644 72 20 73.879 20 76.1821C20 77.7248 20.8481 79.0847 22.0984 79.8086V84.0053C20.8481 84.7291 20 86.089 20 87.6317C20 89.1744 20.8481 90.5344 22.0984 91.2509V95.4476C20.8481 96.1714 20 97.5314 20 99.0741C20 101.384 21.879 103.271 24.1967 103.271C26.5144 103.271 28.3935 101.392 28.3935 99.0741C28.3935 97.5314 27.5453 96.1714 26.2951 95.4476V91.2509C27.5453 90.5417 28.3935 89.1818 28.3935 87.6317C28.3935 86.0817 27.5453 84.7291 26.2951 84.0053V81.3805L29.227 84.4294C29.1173 84.7949 29.0661 85.1824 29.0661 85.5846C29.0661 87.8949 30.9451 89.7667 33.2482 89.7667C35.5513 89.7667 37.445 87.8949 37.445 85.5846C37.445 85.1824 37.3938 84.7949 37.2841 84.4294L40.216 81.3805V84.0126C38.9657 84.7218 38.1176 86.0817 38.1176 87.6317C38.1176 89.1818 38.9657 90.5344 40.216 91.2363V95.4549C38.9657 96.1641 38.1176 97.524 38.1176 99.0741C38.1176 101.384 39.9966 103.271 42.3143 103.271C44.6321 103.271 46.4965 101.392 46.4965 99.0741C46.4965 97.5314 45.6483 96.1714 44.3981 95.4476V91.2509C45.6483 90.5417 46.4965 89.1818 46.4965 87.6317H46.4818ZM26.5876 97.6337C26.668 97.7653 26.7484 97.9189 26.7996 98.0797C26.8508 98.2259 26.9093 98.3649 26.9312 98.5111C26.9312 98.5549 26.9458 98.6061 26.9604 98.6573C26.9751 98.7889 26.9897 98.9278 26.9897 99.0741C26.9897 100.617 25.7394 101.867 24.1967 101.867C22.654 101.867 21.4038 100.617 21.4038 99.0741C21.4038 98.9278 21.4184 98.7889 21.433 98.6573C21.4477 98.6061 21.4623 98.5476 21.4623 98.5111C21.4915 98.3649 21.5427 98.2259 21.5939 98.0797C21.6451 97.9189 21.7255 97.7726 21.8059 97.6337C21.8863 97.4875 21.996 97.3486 22.0984 97.2316C22.4201 96.8587 22.8368 96.5882 23.2974 96.4273C23.3925 96.3981 23.5022 96.3762 23.5899 96.3469C23.78 96.303 23.992 96.2811 24.1967 96.2811C24.4015 96.2811 24.6135 96.3104 24.8036 96.3469C24.8986 96.3762 25.0083 96.3981 25.096 96.4273C25.5567 96.5882 25.9734 96.8587 26.2951 97.2316C26.4048 97.3559 26.5071 97.4875 26.5876 97.6337ZM26.5876 86.1841C26.668 86.3303 26.7484 86.4765 26.7996 86.6301C26.8508 86.7617 26.8946 86.9152 26.9312 87.0615V87.0761C26.9458 87.1273 26.9458 87.1857 26.9604 87.2369C26.9751 87.3612 26.9897 87.5074 26.9897 87.6391C26.9897 87.7853 26.9751 87.9242 26.9604 88.0558C26.9458 88.107 26.9312 88.1655 26.9312 88.202C26.8873 88.3483 26.8508 88.4945 26.7996 88.6334C26.7484 88.7943 26.668 88.9259 26.5876 89.0794C26.5071 89.211 26.3975 89.3499 26.2951 89.4669C25.7833 90.0591 25.0302 90.4247 24.1967 90.4247C23.3632 90.4247 22.6102 90.0591 22.0984 89.4669C21.9887 89.3426 21.8863 89.211 21.8059 89.0794C21.7255 88.9332 21.6451 88.7943 21.5939 88.6334C21.5427 88.5018 21.4842 88.3483 21.4623 88.202C21.4623 88.1582 21.4477 88.107 21.433 88.0558C21.4184 87.9242 21.4038 87.7853 21.4038 87.6391C21.4038 87.5074 21.4184 87.3685 21.433 87.2369C21.4477 87.1857 21.4477 87.1273 21.4623 87.0761V87.0615C21.5061 86.9152 21.5427 86.769 21.5939 86.6301C21.6451 86.4839 21.7255 86.3376 21.8059 86.1841C21.8863 86.0525 21.996 85.9136 22.0984 85.7966C22.4201 85.431 22.8368 85.1532 23.2974 84.9923C23.3925 84.9631 23.5022 84.9412 23.5899 84.9119C23.78 84.868 23.992 84.8461 24.1967 84.8461C24.4015 84.8461 24.6135 84.8753 24.8036 84.9119C24.8986 84.9412 25.0083 84.9631 25.096 84.9923C25.5567 85.1532 25.9734 85.4383 26.2951 85.7966C26.4048 85.9209 26.5071 86.0525 26.5876 86.1841ZM26.9897 76.1821C26.9897 77.7248 25.7394 78.9751 24.1967 78.9751C23.3632 78.9751 22.6102 78.6095 22.0984 78.0173C21.6524 77.5347 21.3965 76.8913 21.3965 76.1748C21.3965 74.6394 22.6467 73.3892 24.1894 73.3892C25.7321 73.3892 26.9166 74.5736 26.9824 76.0505V76.1748L26.9897 76.1821ZM36.0339 85.7381L36.0192 85.7527V85.7966C36.0192 85.8405 36.0192 85.8916 36.0046 85.9282C36.0046 85.994 35.99 86.0744 35.9754 86.1402C35.9754 86.1841 35.9608 86.2206 35.9461 86.2645C35.9169 86.3449 35.8949 86.44 35.8657 86.5204C35.8365 86.6008 35.8145 86.6813 35.7707 86.7617C35.7268 86.8421 35.6902 86.9225 35.6464 86.9883C35.5952 87.0688 35.5513 87.1492 35.5001 87.215C35.4051 87.3393 35.31 87.4563 35.2077 87.5659C35.1273 87.6464 35.0468 87.7122 34.9664 87.778C34.8348 87.8876 34.6813 87.9827 34.535 88.0631C34.3742 88.1435 34.2133 88.2093 34.0379 88.2678C33.9282 88.3117 33.8112 88.3336 33.7015 88.3483C33.5553 88.3775 33.3945 88.3921 33.2336 88.3921C33.0728 88.3921 32.9119 88.3775 32.7657 88.3483C32.656 88.3336 32.539 88.3044 32.4294 88.2678C32.2977 88.224 32.1442 88.1728 32.0272 88.107C31.9176 88.0558 31.8152 87.9973 31.7201 87.9315C31.669 87.9023 31.6105 87.8657 31.5593 87.8072C31.4643 87.7414 31.3692 87.661 31.2742 87.5659C31.1645 87.4563 31.0694 87.3393 30.9817 87.215C30.9305 87.1492 30.872 87.0688 30.8355 86.9883C30.7916 86.9225 30.755 86.8421 30.7112 86.7617C30.6819 86.6813 30.6454 86.6008 30.6161 86.5204C30.5723 86.44 30.5503 86.3449 30.5357 86.2645C30.5211 86.2206 30.5065 86.1841 30.5065 86.1402C30.4918 86.0744 30.4772 85.994 30.4772 85.9282C30.4626 85.8843 30.4626 85.8331 30.4626 85.7966V85.7527C30.4626 85.7527 30.448 85.7381 30.448 85.7235V85.5919C30.448 84.0492 31.6982 82.7989 33.2336 82.7989C34.769 82.7989 36.0266 84.0492 36.0266 85.5919V85.7381H36.0339ZM39.5068 76.1821V76.0505L39.5214 76.0359C39.5872 74.5736 40.8082 73.4038 42.307 73.4038C43.8059 73.4038 45.0927 74.654 45.0927 76.1894C45.0927 76.8986 44.8368 77.5493 44.3908 78.0319C43.879 78.6241 43.1405 78.9897 42.307 78.9897C40.7643 78.9897 39.5141 77.7394 39.5141 76.1967L39.5068 76.1821ZM45.0854 99.0741C45.0854 100.617 43.8351 101.867 42.2997 101.867C40.7643 101.867 39.5068 100.617 39.5068 99.0741C39.5068 98.3722 39.7627 97.7288 40.2087 97.2316C40.7205 96.6394 41.4735 96.2738 42.307 96.2738C43.1405 96.2738 43.879 96.6394 44.3908 97.2316C44.8368 97.7288 45.0927 98.3722 45.0927 99.0741H45.0854ZM42.2997 90.4174C41.4662 90.4174 40.7132 90.0518 40.2014 89.4596C39.7554 88.977 39.4995 88.3336 39.4995 87.6317C39.4995 86.9298 39.7554 86.2718 40.2014 85.7893C40.7132 85.1971 41.4662 84.8315 42.2997 84.8315C43.1332 84.8315 43.8717 85.1971 44.3835 85.7893C44.8295 86.2718 45.0854 86.9152 45.0854 87.6317C45.0854 88.3483 44.8295 88.977 44.3835 89.4596C43.8717 90.0518 43.1332 90.4174 42.2997 90.4174Z" fill="#DE7330"/>
<path d="M36.0337 85.5919V85.7381L36.019 85.7527V85.7966C36.019 85.8405 36.019 85.8917 36.0044 85.9282C36.0044 85.994 35.9898 86.0745 35.9752 86.1403C35.9752 86.1841 35.9605 86.2207 35.9459 86.2645C35.9167 86.345 35.8947 86.44 35.8655 86.5204C35.8362 86.6009 35.8143 86.6813 35.7704 86.7617C35.7266 86.8421 35.69 86.9226 35.6461 86.9884C35.595 87.0688 35.5511 87.1492 35.4999 87.215C35.4049 87.3393 35.3098 87.4563 35.2075 87.566C35.127 87.6464 35.0466 87.7122 34.9662 87.778C34.8346 87.8877 34.681 87.9827 34.5348 88.0631C34.374 88.1436 34.2131 88.2094 34.0376 88.2679C33.928 88.3117 33.811 88.3337 33.7013 88.3483C33.5551 88.3775 33.3942 88.3922 33.2334 88.3922C33.0725 88.3922 32.9117 88.3775 32.7655 88.3483C32.6558 88.3337 32.5388 88.3044 32.4291 88.2679C32.2975 88.224 32.144 88.1728 32.027 88.107C31.9173 88.0558 31.815 87.9973 31.7199 87.9315C31.6688 87.9023 31.6103 87.8657 31.5591 87.8072C31.464 87.7414 31.369 87.661 31.2739 87.566C31.1643 87.4563 31.0692 87.3393 30.9815 87.215C30.9303 87.1492 30.8718 87.0688 30.8353 86.9884C30.7914 86.9226 30.7548 86.8421 30.711 86.7617C30.6817 86.6813 30.6452 86.6009 30.6159 86.5204C30.572 86.44 30.5501 86.345 30.5355 86.2645C30.5209 86.2207 30.5062 86.1841 30.5062 86.1403C30.4916 86.0745 30.477 85.994 30.477 85.9282C30.4624 85.8844 30.4624 85.8332 30.4624 85.7966V85.7527C30.4624 85.7527 30.4478 85.7381 30.4478 85.7235V85.5919C30.4478 84.0492 31.698 82.799 33.2334 82.799C34.7688 82.799 36.0263 84.0492 36.0263 85.5919H36.0337Z" fill="#F5C246"/>
<path d="M26.9897 76.0579V76.1822C26.9897 77.7249 25.7394 78.9752 24.1967 78.9752C23.3632 78.9752 22.6102 78.6096 22.0984 78.0174C21.6524 77.5348 21.3965 76.8914 21.3965 76.1749C21.3965 74.6395 22.6467 73.3893 24.1894 73.3893C25.7321 73.3893 26.9166 74.5737 26.9824 76.0506L26.9897 76.0579Z" fill="#F5C246"/>
<path fill-rule="evenodd" clip-rule="evenodd" d="M45.0854 76.1821C45.0854 76.8914 44.8295 77.5421 44.3835 78.0246C43.8717 78.6168 43.1333 78.9824 42.2998 78.9824C40.7571 78.9824 39.5068 77.7322 39.5068 76.1895V76.0579L39.5215 76.0432C39.5873 74.581 40.8083 73.4111 42.3071 73.4111C43.8059 73.4111 45.0927 74.6614 45.0927 76.1968L45.0854 76.1821Z" fill="#F5C246"/>
<path fill-rule="evenodd" clip-rule="evenodd" d="M45.0854 99.0741C45.0854 100.617 43.8352 101.867 42.2998 101.867C40.7644 101.867 39.5068 100.617 39.5068 99.0741C39.5068 98.3722 39.7627 97.7288 40.2087 97.2316C40.7205 96.6394 41.4736 96.2738 42.3071 96.2738C43.1406 96.2738 43.879 96.6394 44.3908 97.2316C44.8368 97.7288 45.0927 98.3722 45.0927 99.0741H45.0854Z" fill="#F5C246"/>
<path fill-rule="evenodd" clip-rule="evenodd" d="M45.0854 87.6318C45.0854 88.3337 44.8295 88.9771 44.3835 89.4596C43.8717 90.0519 43.1333 90.4174 42.2998 90.4174C41.4663 90.4174 40.7132 90.0519 40.2014 89.4596C39.7554 88.9771 39.4995 88.3337 39.4995 87.6318C39.4995 86.9299 39.7554 86.2719 40.2014 85.7893C40.7132 85.1971 41.4663 84.8315 42.2998 84.8315C43.1333 84.8315 43.8717 85.1971 44.3835 85.7893C44.8295 86.2719 45.0854 86.9153 45.0854 87.6318Z" fill="#F5C246"/>
<path fill-rule="evenodd" clip-rule="evenodd" d="M26.9897 99.0741C26.9897 100.617 25.7395 101.867 24.1968 101.867C22.6541 101.867 21.4038 100.617 21.4038 99.0741C21.4038 98.9278 21.4184 98.7889 21.4331 98.6573C21.4477 98.6061 21.4623 98.5477 21.4623 98.5111C21.5062 98.3649 21.5427 98.2186 21.5939 98.0797C21.6451 97.9189 21.7255 97.7727 21.8059 97.6337C21.8864 97.4875 21.996 97.3486 22.0984 97.2316C22.4201 96.8587 22.8368 96.5882 23.2975 96.4274C23.3925 96.3981 23.5022 96.3762 23.5899 96.3469C23.78 96.3031 23.992 96.2811 24.1968 96.2811C24.4015 96.2811 24.6135 96.3104 24.8036 96.3469C24.8987 96.3762 25.0083 96.3981 25.0961 96.4274C25.5567 96.5882 25.9734 96.8587 26.2951 97.2316C26.4048 97.3559 26.5072 97.4875 26.5876 97.6337C26.668 97.7653 26.7484 97.9189 26.7996 98.0797C26.8508 98.2113 26.8947 98.3649 26.9312 98.5111C26.9312 98.555 26.9458 98.6061 26.9605 98.6573C26.9751 98.7889 26.9897 98.9278 26.9897 99.0741Z" fill="#F5C246"/>
<path fill-rule="evenodd" clip-rule="evenodd" d="M26.9897 87.6318C26.9897 87.778 26.9751 87.917 26.9605 88.0486C26.9458 88.0997 26.9312 88.1582 26.9312 88.1948C26.8873 88.341 26.8508 88.4872 26.7996 88.6262C26.7484 88.787 26.668 88.9186 26.5876 89.0722C26.5072 89.2038 26.3975 89.3427 26.2951 89.4597C25.7833 90.0519 25.0303 90.4175 24.1968 90.4175C23.3633 90.4175 22.6102 90.0519 22.0984 89.4597C21.9887 89.3354 21.8864 89.2038 21.8059 89.0722C21.7255 88.9259 21.6451 88.787 21.5939 88.6262C21.5427 88.4946 21.4989 88.341 21.4623 88.1948C21.4623 88.1509 21.4477 88.0997 21.4331 88.0486C21.4184 87.917 21.4038 87.778 21.4038 87.6318C21.4038 87.5002 21.4184 87.3613 21.4331 87.2297C21.4477 87.1785 21.4477 87.12 21.4623 87.0688V87.0542C21.5062 86.908 21.5427 86.7618 21.5939 86.6228C21.6451 86.4766 21.7255 86.3304 21.8059 86.1769C21.8864 86.0452 21.996 85.9063 22.0984 85.7893C22.4201 85.4238 22.8368 85.1459 23.2975 84.9851C23.3925 84.9558 23.5022 84.9339 23.5899 84.9047C23.78 84.8608 23.992 84.8389 24.1968 84.8389C24.4015 84.8389 24.6135 84.8681 24.8036 84.9047C24.8987 84.9339 25.0083 84.9558 25.0961 84.9851C25.5567 85.1459 25.9734 85.4311 26.2951 85.7893C26.4048 85.9136 26.5072 86.0452 26.5876 86.1769C26.668 86.3231 26.7484 86.4693 26.7996 86.6228C26.8508 86.7545 26.8947 86.908 26.9312 87.0542V87.0688C26.9458 87.12 26.9458 87.1785 26.9605 87.2297C26.9751 87.354 26.9897 87.5002 26.9897 87.6318Z" fill="#F5C246"/>
<path d="M68.7596 96.7197H67.1803C67.1803 94.5921 65.5499 93.4077 64.0364 93.203L64.2484 91.6383C66.9025 91.9966 68.7596 94.0876 68.7596 96.7197ZM60.8121 92.0478C58.9184 90.9072 57.4708 89.1817 56.5276 86.9225L57.9826 86.3156C58.8088 88.2897 60.0005 89.7227 61.6237 90.6952L60.8121 92.0478ZM55.5771 83.7567C55.2116 81.9434 55.0288 79.9036 55.0142 77.33H56.5934C56.608 79.7939 56.7762 81.7387 57.1198 83.4423L55.5771 83.7567Z" fill="#DE7330"/>
<path d="M69.0081 102.832H50.2544C49.7938 102.832 49.4209 102.459 49.4209 101.999V73.689C49.4209 73.2283 49.7938 72.8555 50.2544 72.8555H52.7768C53.2374 72.8555 53.6103 73.2283 53.6103 73.689V98.6427H69.0081C69.4687 98.6427 69.8416 99.0156 69.8416 99.4762V101.999C69.8416 102.459 69.4687 102.832 69.0081 102.832Z" fill="#DE7330"/>
<path d="M59.6352 81.2781C60.2692 81.2781 60.7831 80.7641 60.7831 80.1302C60.7831 79.4962 60.2692 78.9823 59.6352 78.9823C59.0012 78.9823 58.4873 79.4962 58.4873 80.1302C58.4873 80.7641 59.0012 81.2781 59.6352 81.2781Z" fill="#F5C246"/>
<path d="M66.5517 90.6732C67.1857 90.6732 67.6996 90.1593 67.6996 89.5253C67.6996 88.8914 67.1857 88.3774 66.5517 88.3774C65.9177 88.3774 65.4038 88.8914 65.4038 89.5253C65.4038 90.1593 65.9177 90.6732 66.5517 90.6732Z" fill="#F5C246"/>
<path d="M61.8867 87.0031C62.5206 87.0031 63.0345 86.4891 63.0345 85.8552C63.0345 85.2212 62.5206 84.7073 61.8867 84.7073C61.2527 84.7073 60.7388 85.2212 60.7388 85.8552C60.7388 86.4891 61.2527 87.0031 61.8867 87.0031Z" fill="#F5C246"/>
<path fill-rule="evenodd" clip-rule="evenodd" d="M56.9445 91.1119C57.0688 91.1119 57.1785 91.1924 57.215 91.3093L57.3686 91.7627C57.4271 91.9308 57.5587 92.0697 57.7341 92.1282L58.1874 92.2818C58.341 92.3329 58.4214 92.4938 58.3702 92.6473C58.341 92.7351 58.2752 92.8009 58.1874 92.8301L57.7341 92.9837C57.566 93.0421 57.4271 93.1737 57.3686 93.3492L57.215 93.8025C57.1639 93.9561 57.003 94.0365 56.8495 93.9853C56.7617 93.9561 56.6959 93.8903 56.6667 93.8025L56.5131 93.3492C56.4546 93.1811 56.323 93.0421 56.1476 92.9837L55.6943 92.8301C55.5407 92.7789 55.4603 92.6181 55.5115 92.4645C55.5407 92.3768 55.6065 92.311 55.6943 92.2818L56.1476 92.1282C56.3157 92.0697 56.4546 91.9381 56.5131 91.7627L56.6667 91.3093C56.7032 91.1924 56.8129 91.1119 56.9372 91.1119H56.9445Z" fill="#F5C246"/>
<path fill-rule="evenodd" clip-rule="evenodd" d="M64.3288 94.6068C64.4531 94.6068 64.5628 94.6872 64.5993 94.8042L64.7529 95.2575C64.8113 95.4257 64.9429 95.5646 65.1184 95.6231L65.5717 95.7766C65.7253 95.8278 65.8057 95.9887 65.7545 96.1422C65.7253 96.2299 65.6595 96.2957 65.5717 96.325L65.1184 96.4785C64.9503 96.537 64.8113 96.6686 64.7529 96.8441L64.5993 97.2974C64.5481 97.4509 64.3873 97.5314 64.2337 97.4802C64.146 97.4509 64.0802 97.3851 64.051 97.2974L63.8974 96.8441C63.8389 96.6759 63.7073 96.537 63.5319 96.4785L63.0785 96.325C62.925 96.2738 62.8446 96.113 62.8958 95.9594C62.925 95.8717 62.9908 95.8059 63.0785 95.7766L63.5319 95.6231C63.7 95.5646 63.8389 95.433 63.8974 95.2575L64.051 94.8042C64.0875 94.6872 64.1972 94.6068 64.3215 94.6068H64.3288Z" fill="#F5C246"/>
<path fill-rule="evenodd" clip-rule="evenodd" d="M60.4538 93.415C60.5781 93.415 60.6878 93.4955 60.7243 93.6124L60.8779 94.0658C60.9363 94.2339 61.0679 94.3728 61.2434 94.4313L61.6967 94.5849C61.8503 94.636 61.9307 94.7969 61.8795 94.9504C61.8503 95.0382 61.7845 95.104 61.6967 95.1332L61.2434 95.2868C61.0753 95.3452 60.9363 95.4768 60.8779 95.6523L60.7243 96.1056C60.6731 96.2592 60.5123 96.3396 60.3587 96.2884C60.271 96.2592 60.2052 96.1934 60.176 96.1056L60.0224 95.6523C59.9639 95.4842 59.8323 95.3452 59.6569 95.2868L59.2035 95.1332C59.05 95.082 58.9696 94.9212 59.0208 94.7676C59.05 94.6799 59.1158 94.6141 59.2035 94.5849L59.6569 94.4313C59.825 94.3728 59.9639 94.2412 60.0224 94.0658L60.176 93.6124C60.2125 93.4955 60.3222 93.415 60.4465 93.415H60.4538Z" fill="#F5C246"/>
</svg>
